{"title":"Yosemite.2015.WEBRip.480p.x264.AAC-VYTO [P2PDL]","uid":13810442,"size":324049085,"categoryP":"video","categoryS":"movies","magnet":"?xt=urn:btih:b555db3cde24bc82b4f978da58f38d4617c8257b&amp;dn=Yosemite.2015.WEBRip.480p.x264.AAC-VYTO+%5BP2PDL%5D&amp;tr=udp%3A%2F%2Ftracker.leechers-paradise.org%3A6969&amp;tr=udp%3A%2F%2Fzer0day.ch%3A1337&amp;tr=udp%3A%2F%2Fopen.demonii.com%3A1337&amp;tr=udp%3A%2F%2Ftracker.coppersurfer.tk%3A6969&amp;tr=udp%3A%2F%2Fexodus.desync.com%3A6969","seeders":1,"leechers":0,"uploader":"VYTOP2PDL","files":7,"time":1457496718,"description":"Yosemite.2015.WEBRip.480p.x264.AAC-VYTO\r\n\r\n\r\nGenre: Drama  \nhttp://www.imdb.com/title/tt2992000/\r\n\r\n\r\nFormat                                   : MPEG-4\r\nFile size                                : 301 MiB\r\nDuration                                 : 1h 21mn\r\nOverall bit rate                         : 514 Kbps\r\n\r\nVideo\r\nFormat                                   : AVC\r\nBit rate                                 : 479 Kbps\r\nWidth                                    : 720 pixels\r\nHeight                                   : 384 pixels\r\nDisplay aspect ratio                     : 1.85:1\r\nFrame rate mode                          : Constant\r\nFrame rate                               : 23.976 fps\r\nBit depth                                : 8 bits\r\nStream size                              : 281 MiB (93%)\r\nWriting library                          : x264\r\n\r\nAudio\r\nFormat                                   : AAC\r\nBit rate mode                            : Variable\r\nBit rate                                 : 32.0 Kbps\r\nChannel(s)                               : 2 channels \r\nChannel positions                        : Front: L R \r\nSampling rate                            : 48.0 KHz \r\nStream size                              : 18.7 MiB (6%)\r\nLanguage                                 : English\r\n\r\nSubtitle                                 : Yes (English)\r\n\r\nScreen Shot: (Click to view)\r\n \nhttp://ititli.com/X8U \nhttp://ititli.com/X8h \nhttp://ititli.com/X8s \nhttp://ititli.com/X8Y \nhttp://ititli.com/X84 \nhttp://ititli.com/X8K \nhttp://ititli.com/X8V \nhttp://ititli.com/X8t \nhttp://ititli.com/X8L\r\n\r\n----------------------------------------------------------------------------------------------------\r\n\r\n\r\nEncoder Notes: Looking For Early Access To Anything You Can Provide WEBDL, DVDScr, DVDR, BluRay,\r\nDirect Audio, Music Releases and Seedboxes. If You Got anything to offer please contact us.\r\n\r\nSupport us by donating BC - 1FgwdzPsd1y25Gea8wP1qni35uGCtmkRCD\r\n\r\n\r\nSend some love!\r\nFind us and join us!","torrent":{"xt":"urn:btih:b555db3cde24bc82b4f978da58f38d4617c8257b","amp;dn":"Yosemite.2015.WEBRip.480p.x264.AAC-VYTO+%5BP2PDL%5D","amp;tr":["udp%3A%2F%2Ftracker.leechers-paradise.org%3A6969","udp%3A%2F%2Fzer0day.ch%3A1337","udp%3A%2F%2Fopen.demonii.com%3A1337","udp%3A%2F%2Ftracker.coppersurfer.tk%3A6969","udp%3A%2F%2Fexodus.desync.com%3A6969"],"infoHash":"b555db3cde24bc82b4f978da58f38d4617c8257b","infoHashBuffer":{"type":"Buffer","data":[181,85,219,60,222,36,188,130,180,249,120,218,88,243,141,70,23,200,37,123]},"announce":[],"urlList":[]}}